# xmcd
#
# Track frame offsets:
#	150
#	17487
#	36084
#	55300
#	73237
#	91391
#	110056
#	129484
#	151256
#	173547
#	191961
#	206848
#	225748
#	239372
#	261164
#	280266
#	301175
#	314959
#	336186
#
# Disc length: 4711 seconds
#
# Revision: 0
# Processed by: cddbd v1.5.1PL0 Copyright (c) Steve Scherf et al.
# Submitted via: dBpowerAMP V4.0
#
DISCID=1a126513
DTITLE=Various Artist - SHE
DYEAR=2004
DGENRE=MUSIC
TTITLE0=SHE01 - SHE
TTITLE1=SHE02 - 
TTITLE2=SHE03 - 
TTITLE3=SHE04 - 
TTITLE4=SHE05 - 
TTITLE5=SHE06 - 
TTITLE6=SHE07 - 
TTITLE7=SHE08 - 
TTITLE8=SHE09 - 
TTITLE9=SHE10 - 
TTITLE10=SHE11 - 
TTITLE11=SHE12 - 
TTITLE12=SHE13 - 
TTITLE13=SHE14 - 
TTITLE14=SHE15 - 
TTITLE15=SHE16 - 
TTITLE16=SHE17 - 
TTITLE17=SHE18 - 
TTITLE18=SHE19 - 
EXTD=YJL
EXTT0=
EXTT1=
EXTT2=
EXTT3=
EXTT4=
EXTT5=
EXTT6=
EXTT7=
EXTT8=
EXTT9=
EXTT10=
EXTT11=
EXTT12=
EXTT13=
EXTT14=
EXTT15=
EXTT16=
EXTT17=
EXTT18=
PLAYORDER=
